<svg width="20" height="20" viewBox="0 0 20 20" fill="none" xmlns="http://www.w3.org/2000/svg">
<path fill-rule="evenodd" clip-rule="evenodd" d="M3.49984 4.33334L9.79984 9.05834C9.85754 9.10162 9.92771 9.12501 9.99984 9.12501C10.072 9.12501 10.1421 9.10162 10.1998 9.05834L16.4998 4.33334H3.49984ZM17.3332 4.95834L10.7998 9.85834C10.569 10.0314 10.2883 10.125 9.99984 10.125C9.71134 10.125 9.43063 10.0314 9.19984 9.85834L2.6665 4.95834V15.6667H17.3332V4.95834ZM2.49984 3.33334H17.4998C17.7208 3.33334 17.9328 3.42114 18.0891 3.57742C18.2454 3.7337 18.3332 3.94566 18.3332 4.16668V15.8333C18.3332 16.0544 18.2454 16.2663 18.0891 16.4226C17.9328 16.5789 17.7208 16.6667 17.4998 16.6667H2.49984C2.27882 16.6667 2.06686 16.5789 1.91058 16.4226C1.7543 16.2663 1.6665 16.0544 1.6665 15.8333V4.16668C1.6665 3.94566 1.7543 3.7337 1.91058 3.57742C2.06686 3.42114 2.27882 3.33334 2.49984 3.33334Z" fill="black"/>
</svg>
