<svg preserveAspectRatio="none" width="100%" height="100%" overflow="visible" style="display: block;" viewBox="0 0 20 20" fill="none" xmlns="http://www.w3.org/2000/svg">
<path id="Vector" fill-rule="evenodd" clip-rule="evenodd" d="M7.429 6.969H11.143V8.819C11.678 7.755 13.05 6.799 15.111 6.799C19.062 6.799 20 8.917 20 12.803V20H16V13.688C16 11.475 15.465 10.227 14.103 10.227C12.214 10.227 11.429 11.572 11.429 13.687V20H7.429V6.969ZM0.57 19.83H4.57V6.799H0.57V19.83ZM5.143 2.55C5.14315 2.88528 5.07666 3.21724 4.94739 3.52659C4.81812 3.83594 4.62865 4.11651 4.39 4.352C4.15064 4.59012 3.86671 4.77874 3.55442 4.90708C3.24214 5.03543 2.90763 5.10098 2.57 5.1C1.8896 5.09847 1.23691 4.83029 0.752 4.353C0.5143 4.11665 0.325532 3.83575 0.196496 3.52637C0.0674603 3.21699 0.000688218 2.88521 0 2.55C0 1.873 0.27 1.225 0.753 0.747001C1.2367 0.267882 1.89018 -0.000624124 2.571 1.0894e-06C3.253 1.0894e-06 3.907 0.269001 4.39 0.747001C4.873 1.225 5.143 1.873 5.143 2.55Z" fill="var(--fill-0, #2E6DF5)"/>
</svg>
