<svg width="20" height="20" viewBox="0 0 24 24" fill="currentColor" xmlns="http://www.w3.org/2000/svg">
  <path d="M12 0C5.374 0 0 5.373 0 12c0 6.628 5.374 12 12 12 6.627 0 12-5.372 12-12 0-6.627-5.373-12-12-12zm7.369 5.453a10.064 10.064 0 012.186 5.765c-.32-.068-3.52-.713-6.74-.308-.07-.173-.136-.35-.208-.527-.196-.495-.408-.984-.63-1.46 3.539-1.44 5.153-3.513 5.392-3.47zm-1.554-1.326c-.215.284-1.67 2.22-5.078 3.497A41.656 41.656 0 009.52 2.64C10.96 2.23 12.476 2 14.054 2c1.318 0 2.59.184 3.761.527zm-9.663-.513a49.64 49.64 0 013.25 4.92c-4.092 1.089-7.701 1.079-8.09 1.071A10.115 10.115 0 018.152 3.614zM1.95 12.007v-.267c.378.009 4.601.072 8.964-1.243.252.494.49.994.712 1.498-.1.03-.203.063-.303.097-4.511 1.456-6.903 5.43-7.107 5.789A10.05 10.05 0 011.95 12.007zm10.05 10.044a10.073 10.073 0 01-6.338-2.239c.165-.315 2.044-3.97 6.997-5.706l.06-.02a35.698 35.698 0 011.803 6.4 10.03 10.03 0 01-2.522.565zm4.407-.99a37.508 37.508 0 00-1.688-6.004c2.746-.44 5.152.282 5.44.371a10.072 10.072 0 01-3.752 5.633z"/>
</svg>
