<svg preserveAspectRatio="none" width="100%" height="100%" overflow="visible" style="display: block;" viewBox="0 0 24 24" fill="none" xmlns="http://www.w3.org/2000/svg">
<g id="up1" transform="rotate(180 12 12)">
<path d="M12.6999 17.624V4.6956C12.6999 4.51111 12.6262 4.33419 12.4949 4.20374C12.3637 4.07329 12.1856 4 12 4C11.8144 4 11.6363 4.07329 11.5051 4.20374C11.3738 4.33419 11.3001 4.51111 11.3001 4.6956V17.624L6.19633 12.5503C6.06491 12.4197 5.88666 12.3463 5.70079 12.3463C5.51493 12.3463 5.33668 12.4197 5.20526 12.5503C5.07383 12.6809 5 12.8581 5 13.0428C5 13.2275 5.07383 13.4046 5.20526 13.5353L11.5045 19.7956C11.5695 19.8604 11.6467 19.9118 11.7317 19.9469C11.8168 19.9819 11.9079 20 12 20C12.0921 20 12.1832 19.9819 12.2683 19.9469C12.3533 19.9118 12.4305 19.8604 12.4955 19.7956L18.7947 13.5353C18.9262 13.4046 19 13.2275 19 13.0428C19 12.8581 18.9262 12.6809 18.7947 12.5503C18.6633 12.4197 18.4851 12.3463 18.2992 12.3463C18.1133 12.3463 17.9351 12.4197 17.8037 12.5503L12.6999 17.624Z" fill="var(--fill-0, #141414)" fill-opacity="0.6"/>
</g>
</svg>
