<svg width="40" height="40" viewBox="0 0 40 40" fill="none" xmlns="http://www.w3.org/2000/svg">
<path d="M38.3991 26.6391C38.4932 26.6204 38.5926 26.6344 38.6765 26.6831C38.7604 26.7319 38.8216 26.8116 38.8474 26.9038C38.8729 26.9959 38.8616 27.0951 38.8151 27.1802C38.7686 27.2652 38.6905 27.3292 38.6003 27.3618C38.2497 27.4885 37.8987 27.6148 37.5476 27.7397C32.6286 29.4893 27.6598 31.0634 22.6433 32.4634C21.2101 32.8633 19.7409 33.1357 18.236 33.2788C17.8599 33.3146 17.481 33.3421 17.1003 33.3618C17.0094 33.3662 16.9154 33.3479 16.8366 33.2993C16.7579 33.2507 16.7005 33.1761 16.6765 33.0903C16.6527 33.0047 16.6638 32.9118 16.7058 32.8296C16.748 32.7471 16.819 32.6824 16.8991 32.6391C17.2349 32.459 17.5735 32.2867 17.9138 32.1225C19.2753 31.4658 20.673 30.9375 22.1062 30.5376C27.1227 29.1376 32.1883 27.9122 37.3025 26.8618C37.6676 26.7868 38.0335 26.7124 38.3991 26.6391Z" fill="black"/>
<path d="M15.1872 7.94383C15.4272 7.70383 16.1476 6.93571 16.9636 7.36766C17.8035 7.82361 17.6118 8.97581 17.3718 10.0317C17.0358 11.4957 16.3397 13.584 15.4997 15.8159C15.3557 16.1999 15.8353 16.4877 16.0993 16.1997C18.1153 13.9677 20.3959 11.7363 22.0759 10.8003C23.0598 10.2484 23.8515 10.224 24.4275 10.728C25.6514 11.784 24.7878 14.4001 22.4118 20.52C21.8598 21.912 21.2837 23.4 20.8757 24.6479C20.7317 25.0078 21.2113 25.2959 21.4753 25.0083C22.1473 24.2403 22.9152 23.3759 23.5632 22.6079C26.0832 19.6799 28.6998 16.6565 30.6198 15.7925C31.6037 15.3606 32.2272 15.6002 32.5632 15.8882C33.6432 16.7282 33.259 18.7201 32.779 21.2641C32.563 22.32 32.2521 23.9756 32.3239 24.7436C32.3239 24.8876 32.4193 25.0081 32.5632 25.0561C33.0912 25.2721 33.3794 25.9921 32.8034 26.6401C32.7554 26.6881 32.683 26.7358 32.611 26.7358C31.9632 26.8797 31.3876 26.6878 31.0036 26.2319C30.1876 25.2239 30.5716 23.2321 31.0036 20.9282C31.2196 19.8242 31.5553 18.0719 31.4353 17.3999C31.4113 17.4238 31.3874 17.4238 31.3396 17.4477C29.8036 18.1197 27.0913 21.2637 24.9314 23.7837C21.6435 27.5995 20.4437 28.8956 19.2917 28.4878C19.0037 28.3918 18.4993 28.08 18.4753 27.144C18.4273 25.8 19.4832 23.0396 20.7312 19.8716C21.6672 17.4475 23.2038 13.5597 23.2038 12.2397C23.1318 12.2877 23.0352 12.3123 22.9392 12.3843C21.0671 13.4165 17.5154 17.0406 13.6276 21.8403C13.1718 22.4161 12.7396 22.9677 12.3317 23.4956C12.3078 23.5195 12.284 23.5439 12.2839 23.5679C8.44458 32.0623 7.38786 32.1122 6.7878 32.1362C6.7878 32.1362 6.76379 32.1362 6.73995 32.1362C6.23602 32.1362 5.80338 31.8241 5.68331 31.3442C5.53931 30.8402 5.56327 30.1197 7.43527 27.2397C8.29921 25.8958 9.45146 24.3122 10.7234 22.6323C10.7473 22.6323 10.7473 22.6079 10.7712 22.56C11.1552 21.72 11.5394 20.8077 11.9714 19.8237C14.0353 14.9519 15.1634 11.52 15.5954 9.76805C15.6434 9.60005 15.5715 9.43184 15.4275 9.35984C15.3556 9.33586 15.2835 9.28814 15.2116 9.21629C14.8516 8.8803 14.8513 8.30383 15.1872 7.94383Z" fill="black"/>
</svg>
